<svg width="64" height="64" viewBox="0 0 64 64" fill="none" xmlns="http://www.w3.org/2000/svg">
  <rect x="4" y="4" width="56" height="56" rx="14" fill="#ECF4EF"/>

  <g opacity="0.65" stroke="#FF6A3D" stroke-linecap="round">
    <path d="M8 42L18 37" stroke-width="1.9"/>
    <path d="M9 47L20 42" stroke-width="1.6"/>
  </g>

  <path d="M9 46L13 30L17 26L19 20L23 18L28 22L26 26L31 35L28 47L21 52L15 49L11 53L8 51L9 48L6 46Z" fill="#17324A"/>
  <circle cx="23.8" cy="22.2" r="1.7" fill="#7EF7C4"/>
  <path d="M29 28.5C35 28 40 30 45 33" stroke="#AFC6D3" stroke-width="1.8" stroke-linecap="round"/>
  <path d="M46 33L49 28L54 30L55 35L51 40L46 37" stroke="#13A676" stroke-width="2" stroke-linecap="round" stroke-linejoin="round"/>

  <g transform="translate(31 23) scale(1.42)" fill="#2ED79D" stroke="#0E7B5A" stroke-width="1.1" stroke-linejoin="round" stroke-linecap="round">
    <path d="M1 7L4 4L8 3L11 5L15 5L17 7L15 9L10 9L8 11H6L6 9L4 9L3 11H1L2 9L0 8Z"/>
  </g>
  <g transform="translate(39 27) scale(1.3)" fill="#55E2B3" stroke="#148763" stroke-width="1.1" stroke-linejoin="round" stroke-linecap="round">
    <path d="M1 7L4 4L8 3L11 5L15 5L17 7L15 9L10 9L8 11H6L6 9L4 9L3 11H1L2 9L0 8Z"/>
  </g>
  <g transform="translate(47 31) scale(1.18)" fill="#78ECC4" stroke="#20916E" stroke-width="1" stroke-linejoin="round" stroke-linecap="round">
    <path d="M1 7L4 4L8 3L11 5L15 5L17 7L15 9L10 9L8 11H6L6 9L4 9L3 11H1L2 9L0 8Z"/>
  </g>

  <rect x="4" y="4" width="56" height="56" rx="14" stroke="#C2DACE" stroke-width="1.5"/>
</svg>
